# xmcd CD database file
#
# Track frame offsets:
#	150
#	16116
#	33665
#	48631
#	68665
#	87351
#	106038
#	119014
#	133409
#	151919
#	172801
#	186570
#	203321
#
# Disc length: 2886 seconds
#
# Revision: 2
# Processed by: cddbd v1.5.2PL0 Copyright (c) Steve Scherf et al.
# Submitted via: jetAudio 7
#
DISCID=ab0b440d
DTITLE=SHINee - Lucifer
DYEAR=1900
DGENRE=blues
TTITLE0=UP and DOWN
TTITLE1=LUCIFER
TTITLE2=Electric Heart
TTITLE3=A-Yo
TTITLE4=Obsession
TTITLE5=Quasimodo
TTITLE6=Shout Out
TTITLE7=WOWOWOW
TTITLE8=Your Name
TTITLE9=Life
TTITLE10=Ready or Not
TTITLE11=Love Pain
TTITLE12=サ．ゲ．フ(Love Stiil Goes On)
EXTD=
EXTT0=
EXTT1=
EXTT2=
EXTT3=
EXTT4=
EXTT5=
EXTT6=
EXTT7=
EXTT8=
EXTT9=
EXTT10=
EXTT11=
EXTT12=
PLAYORDER=
